<?xml version="1.0" encoding="utf-8"?>
<!-- Generator: Adobe Illustrator 17.0.0, SVG Export Plug-In . SVG Version: 6.00 Build 0)  -->
<!DOCTYPE svg PUBLIC "-//W3C//DTD SVG 1.1//EN" "http://www.w3.org/Graphics/SVG/1.1/DTD/svg11.dtd">
<svg version="1.1" id="Layer_1" xmlns="http://www.w3.org/2000/svg" xmlns:xlink="http://www.w3.org/1999/xlink" x="0px" y="0px"
	 width="195.15px" height="109.326px" viewBox="0 0 195.15 109.326" enable-background="new 0 0 195.15 109.326"
	 xml:space="preserve">
<g id="Layer_2" transform="translate(-0.017)">
	<g id="Layer_1_1_" transform="translate(0.017)">
		<path id="primary_copy" fill="#16B798" d="M101.798,42.133l4.05-2.428C97.257,11.108,67.11-5.109,38.513,3.482
			S-6.301,42.22,2.291,70.817c6.865,22.851,27.898,38.5,51.757,38.509c13.725,0,31.794-9.552,46.079-18.809
			c-5.09-5.831-8.865-12.689-11.068-20.109L66.133,83.109c-9.415,4.405-20.435,3.646-29.157-2.009l64.86-38.965L101.798,42.133z
			 M53.366,24.974c7.382-0.013,14.512,2.688,20.033,7.588L23.792,62.374c-3.893-16.305,6.17-32.678,22.474-36.57
			c2.326-0.555,4.709-0.834,7.101-0.83 M94.532,67.212L90.52,69.64c6.562,22.869,27.428,38.665,51.22,38.775
			c29.5,0,53.411-24.273,53.411-54.217S171.21,0,141.711,0c-13.564,0-31.415,9.561-45.528,18.809
			c5.044,5.839,8.788,12.684,10.984,20.08L129.798,26.2c9.304-4.438,20.252-3.679,28.854,2l-64.129,39L94.532,67.212z
			 M142.383,84.418c-7.308,0.009-14.358-2.695-19.786-7.588l49.01-29.878c3.876,16.336-6.225,32.721-22.561,36.597
			c-0.005,0.001-0.009,0.002-0.014,0.003c-2.177,0.512-4.404,0.786-6.64,0.816"/>
	</g>
</g>
</svg>
